<svg xmlns="http://www.w3.org/2000/svg" width="70" height="70" viewBox="0 0 70 70">
  <g id="그룹_25900" data-name="그룹 25900" transform="translate(14229 19003)">
    <circle id="타원_1114" data-name="타원 1114" cx="35" cy="35" r="35" transform="translate(-14229 -19003)"/>
    <path id="path4" d="M23.816,22.506A15.7,15.7,0,0,1,22.264,25.3a14.184,14.184,0,0,1-2,2.417,3.88,3.88,0,0,1-2.571,1.132,6.443,6.443,0,0,1-2.375-.567,6.813,6.813,0,0,0-2.556-.565,7.044,7.044,0,0,0-2.629.565,7.073,7.073,0,0,1-2.271.6,3.653,3.653,0,0,1-2.629-1.162,14.894,14.894,0,0,1-2.092-2.5A17.31,17.31,0,0,1,.929,20.818,16.09,16.09,0,0,1,0,15.581a9.564,9.564,0,0,1,1.256-5,7.367,7.367,0,0,1,2.63-2.661,7.076,7.076,0,0,1,3.556-1,8.373,8.373,0,0,1,2.75.64,8.842,8.842,0,0,0,2.182.642,13.054,13.054,0,0,0,2.419-.756,8,8,0,0,1,3.288-.584,6.982,6.982,0,0,1,5.469,2.88,6.084,6.084,0,0,0-3.227,5.527,6.1,6.1,0,0,0,2,4.594,6.579,6.579,0,0,0,2,1.312q-.241.7-.51,1.339ZM18.244.578a6.161,6.161,0,0,1-1.579,4.041A5.381,5.381,0,0,1,12.2,6.825a4.5,4.5,0,0,1-.034-.547,6.33,6.33,0,0,1,1.676-4.084A6.451,6.451,0,0,1,15.878.661,6.086,6.086,0,0,1,18.214,0a5.246,5.246,0,0,1,.03.578Z" transform="translate(-14206 -18983)" fill="#fff"/>
  </g>
</svg>
