<svg xmlns="http://www.w3.org/2000/svg" width="70" height="70" viewBox="0 0 70 70">
  <g id="그룹_26035" data-name="그룹 26035" transform="translate(-831 -738)">
    <g id="ic_facebook_share_48" transform="translate(831 738)">
      <path id="패스_17028" data-name="패스 17028" d="M70,35A35,35,0,1,0,29.531,69.575V45.117H20.645V35h8.887V27.289c0-8.772,5.225-13.617,13.22-13.617a53.824,53.824,0,0,1,7.835.684v8.613H46.173c-4.348,0-5.7,2.7-5.7,5.466V35h9.707L48.624,45.117H40.469V69.575A35.009,35.009,0,0,0,70,35" fill="#1877f2"/>
      <g id="facebook" transform="translate(20.645 13.672)">
        <path id="패스_17029" data-name="패스 17029" d="M430.646,298.112,432.2,288h-9.707V281.43c0-2.768,1.356-5.466,5.7-5.466h4.413v-8.613a53.824,53.824,0,0,0-7.835-.684c-7.995,0-13.22,4.845-13.22,13.617V288h-8.887v10.117h8.887V322.57a35.381,35.381,0,0,0,10.938,0V298.112h8.155" transform="translate(-402.667 -266.667)" fill="#fff"/>
      </g>
    </g>
  </g>
</svg>
